#N canvas 0 22 548 442 10;
#X obj 52 147 mtof;
#X obj 203 218 *~;
#X obj 290 194 vline~;
#X obj 52 49 inlet;
#X obj 203 257 outlet~;
#X obj 145 67 bng 15 250 50 0 empty empty empty 17 7 0 10 -262144 -1
-1;
#X obj 268 154 / 1000;
#X obj 203 196 osc~;
#X msg 297 33 \$2;
#X obj 297 55 / 127;
#X msg 118 120 \$1 5 \, 0.4 30 30 \, 0 150 20;
#X connect 0 0 7 0;
#X connect 1 0 4 0;
#X connect 2 0 1 1;
#X connect 3 0 0 0;
#X connect 3 0 5 0;
#X connect 3 0 8 0;
#X connect 7 0 1 0;
#X connect 8 0 9 0;
#X connect 9 0 10 0;
#X connect 10 0 2 0;
