#N canvas 66 22 1183 700 10;
#X obj 214 654 dac~;
#X obj 370 26 bng 15 250 50 0 empty empty empty 17 7 0 10 -262144 -1
-1;
#X obj 370 46 s ball;
#X obj 201 573 e_reverb stevey;
#X obj 311 45 r wall;
#X obj 188 610 *~ 0.8;
#X obj 120 609 *~ 0.8;
#X obj 141 457 u_makepolymono 20 1 oscillator \$0-mince;
#X obj 433 98 bng 15 250 50 0 empty empty empty 17 7 0 10 -262144 -1
-1;
#X obj 433 118 s wall;
#X obj 246 610 *~ 0.1;
#X obj -9 315 soundfiler;
#X msg -47 212 read -resize ztri.wav no4;
#X msg -47 255 read -resize zsn1.wav no2;
#X msg -48 277 read -resize mouthk.wav no1;
#X msg -47 233 read -resize zgu.wav no3;
#X obj -50 127 table no3;
#X obj -50 144 table no4;
#X obj -50 110 table no2;
#X obj -50 93 table no1;
#X obj 613 323 +~;
#X obj 549 245 tj_sample no1 1000 15;
#X obj 567 399 dac~;
#X obj 549 221 r ball;
#X obj -43 185 loadbang;
#X obj 664 297 r wall;
#N canvas 0 22 603 370 (subpatch) 1;
#X array noteArray 7 float 3;
#A 0 40 42 43 45 47 48 50;
#X coords 0 370 1 369 200 140 0;
#X restore 239 25 graph;
#X obj 311 91 tabread noteArray;
#X obj 311 67 random 8;
#X msg 311 140 \$1 127;
#X obj 676 375 *~ 0.1;
#X obj 664 321 tj_sample no3 1000 15;
#X obj 311 115 + 30;
#X msg 138 329 \$1 127;
#X obj 136 5 r ball;
#X obj 177 101 i;
#X obj 135 81 tabread noteArray;
#X obj 177 126 * 12;
#X obj 120 149 +;
#X obj 120 125 i;
#X obj 137 26 random 32;
#X obj 185 209 bng 15 250 50 0 empty empty empty 17 7 0 10 -262144
-1 -1;
#X floatatom 142 213 5 0 0 0 - - -, f 5;
#X obj 59 40 r sball;
#X obj 746 162 + 1;
#X obj 670 158 i;
#X obj 696 98 metro 600;
#X obj 689 49 tgl 15 0 empty empty empty 17 7 0 10 -262144 -1 -1 0
1;
#X obj 793 213 s sball;
#X obj 178 56 / 8;
#X obj 138 48 % 8;
#X msg 814 90 0;
#X obj 252 239 r sball2;
#X connect 1 0 2 0;
#X connect 3 0 6 0;
#X connect 3 1 5 0;
#X connect 4 0 28 0;
#X connect 5 0 0 0;
#X connect 6 0 0 1;
#X connect 7 0 3 0;
#X connect 7 0 10 0;
#X connect 8 0 9 0;
#X connect 10 0 0 0;
#X connect 10 0 0 1;
#X connect 12 0 11 0;
#X connect 13 0 11 0;
#X connect 14 0 11 0;
#X connect 15 0 11 0;
#X connect 20 0 22 0;
#X connect 20 0 22 1;
#X connect 21 0 20 0;
#X connect 24 0 12 0;
#X connect 24 0 15 0;
#X connect 24 0 13 0;
#X connect 24 0 14 0;
#X connect 25 0 21 0;
#X connect 27 0 32 0;
#X connect 28 0 27 0;
#X connect 30 0 20 1;
#X connect 31 0 30 0;
#X connect 32 0 29 0;
#X connect 33 0 7 0;
#X connect 34 0 40 0;
#X connect 35 0 37 0;
#X connect 36 0 39 1;
#X connect 37 0 38 1;
#X connect 37 0 41 0;
#X connect 38 0 33 0;
#X connect 38 0 42 0;
#X connect 39 0 38 0;
#X connect 40 0 49 0;
#X connect 40 0 50 0;
#X connect 41 0 39 0;
#X connect 43 0 49 0;
#X connect 43 0 50 0;
#X connect 44 0 45 1;
#X connect 45 0 44 0;
#X connect 45 0 48 0;
#X connect 46 0 45 0;
#X connect 47 0 46 0;
#X connect 49 0 35 0;
#X connect 50 0 36 0;
#X connect 51 0 45 1;
#X connect 52 0 33 0;
