#N canvas 475 265 450 300 10;
#X obj 124 39 inlet;
#X obj 124 192 *~;
#X obj 124 237 outlet~;
#X obj 154 168 adsr 1 10 50 10 100;
#X obj 124 122 tabplay~ \$1;
#X obj 208 74 / 100;
#X obj 208 50 random 40;
#X floatatom 208 121 5 0 0 0 - - -;
#X obj 208 99 + 0.6;
#X connect 0 0 4 0;
#X connect 0 0 6 0;
#X connect 1 0 2 0;
#X connect 3 0 1 1;
#X connect 4 0 1 0;
#X connect 5 0 8 0;
#X connect 6 0 5 0;
#X connect 7 0 3 0;
#X connect 8 0 7 0;
